<svg xmlns="http://www.w3.org/2000/svg" width="34" height="25" fill="none" viewBox="0 0 34 25"><path fill="url(#a)" d="M32.294 4.214a3 3 0 0 0-6 0V20.21a3 3 0 0 0 6 0z"/><path fill="#4338ca" d="M19.746 4.214a3 3 0 0 0-5.999 0V20.21a3 3 0 0 0 5.999 0z"/><path fill="url(#b)" d="M31.658 6.059a3 3 0 1 0-4.725-3.697L14.408 18.371a3 3 0 0 0 4.724 3.696z"/><path fill="url(#c)" d="M19.098 6.06a3 3 0 0 0-4.725-3.697L1.848 18.37a3 3 0 1 0 4.725 3.697z"/><defs><linearGradient id="a" x1="29.294" x2="29.294" y1="1.214" y2="23.21" gradientUnits="userSpaceOnUse"><stop stop-color="#4338ca"/><stop offset="1" stop-color="#6a5ff3"/></linearGradient><linearGradient id="b" x1="31.143" x2="14.922" y1="1.848" y2="22.581" gradientUnits="userSpaceOnUse"><stop stop-color="#8689ff"/><stop offset="1" stop-color="#6366f1"/></linearGradient><linearGradient id="c" x1="18.584" x2="2.362" y1="1.849" y2="22.582" gradientUnits="userSpaceOnUse"><stop stop-color="#8486ff"/><stop offset="1" stop-color="#6366f1"/></linearGradient></defs></svg>