<svg xmlns="http://www.w3.org/2000/svg" width="130" height="25" fill="none" viewBox="0 0 130 25"><path fill="#1e293b" d="M60.6 14.505v7.2c0 .8-.7 1.5-1.5 1.5s-1.4-.6-1.4-1.5v-7.3c0-1.6-1.3-2.9-3-2.9-1.6 0-3 1.3-3 2.9v7.3c0 .8-.6 1.5-1.4 1.5s-1.5-.6-1.5-1.5v-7.3c0-1.6-1.3-2.9-2.9-2.9s-3 1.3-3 2.9v7.3c0 .8-.6 1.5-1.4 1.5s-1.5-.6-1.5-1.5v-7.3c0-3.2 2.6-5.8 5.9-5.8 1.7 0 3.3.8 4.4 2 1.1-1.3 2.7-2 4.4-2 3.2 0 5.9 2.6 5.9 5.8zM76.9 15.905v5.7c0 .8-.6 1.5-1.5 1.5-.6 0-1.4-.6-1.4-1.5-1.3 1-2.7 1.5-4.3 1.5-4.1 0-7.4-3.1-7.4-7.2s3.3-7.4 7.4-7.4c4.1.1 7.2 3.3 7.2 7.4m-2.9 0c0-2.4-1.9-4.5-4.3-4.5s-4.5 2.1-4.5 4.5 2.1 4.3 4.5 4.3c2.5.1 4.3-1.8 4.3-4.3M79 5.205c-.3-.3-.4-.6-.4-1s.2-.8.4-1c.3-.3.6-.4 1-.4s.8.2 1 .4c.3.3.4.6.4 1s-.1.8-.4 1c-.3.3-.6.4-1 .4-.3 0-.7-.1-1-.4m-.4 16.5v-11.7c0-.8.6-1.4 1.5-1.4.8 0 1.4.6 1.4 1.4v11.7c0 .8-.6 1.5-1.4 1.5-.9 0-1.5-.7-1.5-1.5M95.2 21.705c0 .8-.6 1.5-1.4 1.5h-9.1c-.6 0-1.1-.3-1.3-.8-.3-.5-.2-1.1.1-1.5l7.3-9.4h-6.1c-.8 0-1.4-.7-1.4-1.5s.6-1.4 1.4-1.4h9.1c.6 0 1.1.3 1.3.8.3.5.2 1.1-.1 1.5l-7.3 9.4h6.2c.7 0 1.3.6 1.3 1.4M108.9 21.705c0 .8-.6 1.5-1.4 1.5h-9.1c-.6 0-1.1-.3-1.3-.8-.3-.5-.2-1.1.1-1.5l7.3-9.4h-6.2c-.8 0-1.4-.7-1.4-1.5s.6-1.4 1.4-1.4h9.1c.6 0 1.1.3 1.3.8.3.5.2 1.1-.1 1.5l-7.3 9.4h6.2c.8 0 1.4.6 1.4 1.4M110.6 21.705v-19c0-.8.6-1.4 1.5-1.4.8 0 1.4.6 1.4 1.4v19c0 .8-.6 1.5-1.4 1.5-.9 0-1.5-.7-1.5-1.5M129.9 15.805c0 .8-.6 1.4-1.5 1.4h-10.1c.6 1.7 2.2 3 4.2 3 .7 0 1.9-.1 3.3-1 .7-.4 1.6 0 1.9.7s0 1.5-.7 1.9c-1.9 1.3-3.4 1.3-4.5 1.3-4.1 0-7.3-3.3-7.3-7.3s3.3-7.3 7.3-7.3c3.6 0 7.4 2.6 7.4 7.3m-11.5-1.4h8.4c-.6-2-2.5-3-4.2-3-2 0-3.6 1.2-4.2 3"/><path stroke="#4f46e5" stroke-miterlimit="10" d="M32.3 4.215a3 3 0 1 0-6 0v16a3 3 0 0 0 6 0zM19.75 4.215a3 3 0 1 0-6 0v16a3 3 0 0 0 6 0z"/><path stroke="#4f46e5" stroke-miterlimit="10" d="M31.664 6.06a3 3 0 1 0-4.726-3.697L14.411 18.374a3 3 0 1 0 4.725 3.698zM19.102 6.06a3 3 0 1 0-4.726-3.697L1.85 18.375a3 3 0 0 0 4.725 3.697z"/></svg>