<svg width="696" height="691" viewBox="0 0 696 691" fill="none" xmlns="http://www.w3.org/2000/svg">
<line x1="-1362.38" y1="1221.17" x2="5.61744" y2="-529.787" stroke="#4B5563"/>
<line x1="-1350.38" y1="1221.17" x2="17.6174" y2="-529.787" stroke="#4B5563"/>
<line x1="-1338.38" y1="1221.17" x2="29.6174" y2="-529.787" stroke="#4B5563"/>
<line x1="-1326.38" y1="1221.17" x2="41.6174" y2="-529.787" stroke="#4B5563"/>
<line x1="-1314.38" y1="1221.17" x2="53.6174" y2="-529.787" stroke="#4B5563"/>
<line x1="-1302.38" y1="1221.17" x2="65.6174" y2="-529.787" stroke="#4B5563"/>
<line x1="-1290.38" y1="1221.17" x2="77.6194" y2="-529.787" stroke="#4B5563"/>
<line x1="-1278.38" y1="1221.17" x2="89.6194" y2="-529.787" stroke="#4B5563"/>
<line x1="-1266.38" y1="1221.17" x2="101.619" y2="-529.787" stroke="#4B5563"/>
<line x1="-1254.38" y1="1221.17" x2="113.619" y2="-529.787" stroke="#4B5563"/>
<line x1="-1242.38" y1="1221.17" x2="125.619" y2="-529.787" stroke="#4B5563"/>
<line x1="-1230.38" y1="1221.17" x2="137.619" y2="-529.787" stroke="#4B5563"/>
<line x1="-1218.38" y1="1221.17" x2="149.619" y2="-529.787" stroke="#4B5563"/>
<line x1="-1206.38" y1="1221.17" x2="161.619" y2="-529.787" stroke="#4B5563"/>
<line x1="-1194.38" y1="1221.17" x2="173.619" y2="-529.787" stroke="#4B5563"/>
<line x1="-1182.38" y1="1221.17" x2="185.619" y2="-529.787" stroke="#4B5563"/>
<line x1="-1170.38" y1="1221.17" x2="197.619" y2="-529.787" stroke="#4B5563"/>
<line x1="-1158.38" y1="1221.17" x2="209.619" y2="-529.787" stroke="#4B5563"/>
<line x1="-1146.38" y1="1221.17" x2="221.619" y2="-529.787" stroke="#4B5563"/>
<line x1="-1134.38" y1="1221.17" x2="233.619" y2="-529.787" stroke="#4B5563"/>
<line x1="-1122.38" y1="1221.17" x2="245.619" y2="-529.787" stroke="#4B5563"/>
<line x1="-1110.38" y1="1221.17" x2="257.619" y2="-529.787" stroke="#4B5563"/>
<line x1="-1098.38" y1="1221.17" x2="269.621" y2="-529.787" stroke="#4B5563"/>
<line x1="-1086.38" y1="1221.17" x2="281.621" y2="-529.787" stroke="#4B5563"/>
<line x1="-1074.38" y1="1221.17" x2="293.621" y2="-529.787" stroke="#4B5563"/>
<line x1="-1062.38" y1="1221.17" x2="305.621" y2="-529.787" stroke="#4B5563"/>
<line x1="-1050.38" y1="1221.17" x2="317.621" y2="-529.787" stroke="#4B5563"/>
<line x1="-1038.38" y1="1221.17" x2="329.621" y2="-529.787" stroke="#4B5563"/>
<line x1="-1026.38" y1="1221.17" x2="341.621" y2="-529.787" stroke="#4B5563"/>
<line x1="-1014.38" y1="1221.17" x2="353.621" y2="-529.787" stroke="#4B5563"/>
<line x1="-1002.38" y1="1221.17" x2="365.621" y2="-529.787" stroke="#4B5563"/>
<line x1="-990.378" y1="1221.17" x2="377.621" y2="-529.787" stroke="#4B5563"/>
<line x1="-978.378" y1="1221.17" x2="389.621" y2="-529.787" stroke="#4B5563"/>
<line x1="-966.378" y1="1221.17" x2="401.621" y2="-529.787" stroke="#4B5563"/>
<line x1="-954.378" y1="1221.17" x2="413.621" y2="-529.787" stroke="#4B5563"/>
<line x1="-942.378" y1="1221.17" x2="425.621" y2="-529.787" stroke="#4B5563"/>
<line x1="-930.378" y1="1221.17" x2="437.621" y2="-529.787" stroke="#4B5563"/>
<line x1="-918.378" y1="1221.17" x2="449.621" y2="-529.787" stroke="#4B5563"/>
<line x1="-906.378" y1="1221.17" x2="461.621" y2="-529.787" stroke="#4B5563"/>
<line x1="-894.378" y1="1221.17" x2="473.621" y2="-529.787" stroke="#4B5563"/>
<line x1="-882.378" y1="1221.17" x2="485.621" y2="-529.787" stroke="#4B5563"/>
<line x1="-870.378" y1="1221.17" x2="497.621" y2="-529.787" stroke="#4B5563"/>
<line x1="-858.378" y1="1221.17" x2="509.621" y2="-529.787" stroke="#4B5563"/>
<line x1="-846.378" y1="1221.17" x2="521.621" y2="-529.787" stroke="#4B5563"/>
<line x1="-834.378" y1="1221.17" x2="533.621" y2="-529.787" stroke="#4B5563"/>
<line x1="-822.376" y1="1221.17" x2="545.623" y2="-529.787" stroke="#4B5563"/>
<line x1="-810.376" y1="1221.17" x2="557.623" y2="-529.787" stroke="#4B5563"/>
<line x1="-798.376" y1="1221.17" x2="569.623" y2="-529.787" stroke="#4B5563"/>
<line x1="-786.376" y1="1221.17" x2="581.623" y2="-529.787" stroke="#4B5563"/>
<line x1="-774.376" y1="1221.17" x2="593.623" y2="-529.787" stroke="#4B5563"/>
<line x1="-762.376" y1="1221.17" x2="605.623" y2="-529.787" stroke="#4B5563"/>
<line x1="-750.376" y1="1221.17" x2="617.623" y2="-529.787" stroke="#4B5563"/>
<line x1="-738.376" y1="1221.17" x2="629.623" y2="-529.787" stroke="#4B5563"/>
<line x1="-726.378" y1="1221.17" x2="641.621" y2="-529.787" stroke="#4B5563"/>
<line x1="-714.376" y1="1221.17" x2="653.623" y2="-529.787" stroke="#4B5563"/>
<line x1="-702.376" y1="1221.17" x2="665.623" y2="-529.787" stroke="#4B5563"/>
<line x1="-690.376" y1="1221.17" x2="677.623" y2="-529.787" stroke="#4B5563"/>
<line x1="-678.376" y1="1221.17" x2="689.623" y2="-529.787" stroke="#4B5563"/>
<line x1="-666.376" y1="1221.17" x2="701.623" y2="-529.787" stroke="#4B5563"/>
<line x1="-654.376" y1="1221.17" x2="713.623" y2="-529.787" stroke="#4B5563"/>
<line x1="-642.376" y1="1221.17" x2="725.623" y2="-529.787" stroke="#4B5563"/>
<line x1="-630.376" y1="1221.17" x2="737.623" y2="-529.787" stroke="#4B5563"/>
<line x1="-618.376" y1="1221.17" x2="749.623" y2="-529.787" stroke="#4B5563"/>
<line x1="-606.376" y1="1221.17" x2="761.623" y2="-529.787" stroke="#4B5563"/>
<line x1="-594.376" y1="1221.17" x2="773.623" y2="-529.787" stroke="#4B5563"/>
<line x1="-582.376" y1="1221.17" x2="785.623" y2="-529.787" stroke="#4B5563"/>
<line x1="-570.376" y1="1221.17" x2="797.623" y2="-529.787" stroke="#4B5563"/>
<line x1="-558.376" y1="1221.17" x2="809.623" y2="-529.787" stroke="#4B5563"/>
<line x1="-546.376" y1="1221.17" x2="821.623" y2="-529.787" stroke="#4B5563"/>
<line x1="-534.376" y1="1221.17" x2="833.623" y2="-529.787" stroke="#4B5563"/>
<line x1="-522.374" y1="1221.17" x2="845.625" y2="-529.787" stroke="#4B5563"/>
<line x1="-510.374" y1="1221.17" x2="857.625" y2="-529.787" stroke="#4B5563"/>
<line x1="-498.374" y1="1221.17" x2="869.625" y2="-529.787" stroke="#4B5563"/>
<line x1="-486.374" y1="1221.17" x2="881.625" y2="-529.787" stroke="#4B5563"/>
<line x1="-474.374" y1="1221.17" x2="893.625" y2="-529.787" stroke="#4B5563"/>
<line x1="-462.374" y1="1221.17" x2="905.625" y2="-529.787" stroke="#4B5563"/>
<line x1="-450.374" y1="1221.17" x2="917.625" y2="-529.787" stroke="#4B5563"/>
<line x1="-438.374" y1="1221.17" x2="929.625" y2="-529.787" stroke="#4B5563"/>
<line x1="-426.374" y1="1221.17" x2="941.625" y2="-529.787" stroke="#4B5563"/>
<line x1="-414.374" y1="1221.17" x2="953.625" y2="-529.787" stroke="#4B5563"/>
<line x1="-402.374" y1="1221.17" x2="965.625" y2="-529.787" stroke="#4B5563"/>
<line x1="-390.374" y1="1221.17" x2="977.625" y2="-529.787" stroke="#4B5563"/>
<line x1="-378.374" y1="1221.17" x2="989.625" y2="-529.787" stroke="#4B5563"/>
<line x1="-366.374" y1="1221.17" x2="1001.63" y2="-529.787" stroke="#4B5563"/>
<line x1="-354.374" y1="1221.17" x2="1013.63" y2="-529.787" stroke="#4B5563"/>
<line x1="-342.374" y1="1221.17" x2="1025.63" y2="-529.787" stroke="#4B5563"/>
<line x1="-330.374" y1="1221.17" x2="1037.63" y2="-529.787" stroke="#4B5563"/>
<line x1="-318.374" y1="1221.17" x2="1049.63" y2="-529.787" stroke="#4B5563"/>
<line x1="-306.374" y1="1221.17" x2="1061.63" y2="-529.787" stroke="#4B5563"/>
<line x1="-294.374" y1="1221.17" x2="1073.63" y2="-529.787" stroke="#4B5563"/>
<line x1="-282.374" y1="1221.17" x2="1085.63" y2="-529.787" stroke="#4B5563"/>
<line x1="-270.374" y1="1221.17" x2="1097.63" y2="-529.787" stroke="#4B5563"/>
<line x1="-258.374" y1="1221.17" x2="1109.63" y2="-529.787" stroke="#4B5563"/>
<line x1="-246.374" y1="1221.17" x2="1121.63" y2="-529.787" stroke="#4B5563"/>
<line x1="-234.374" y1="1221.17" x2="1133.63" y2="-529.787" stroke="#4B5563"/>
<line x1="-222.374" y1="1221.17" x2="1145.63" y2="-529.787" stroke="#4B5563"/>
<line x1="-210.374" y1="1221.17" x2="1157.63" y2="-529.787" stroke="#4B5563"/>
<line x1="-198.374" y1="1221.17" x2="1169.63" y2="-529.787" stroke="#4B5563"/>
<line x1="-186.374" y1="1221.17" x2="1181.63" y2="-529.787" stroke="#4B5563"/>
<line x1="-174.374" y1="1221.17" x2="1193.63" y2="-529.787" stroke="#4B5563"/>
<line x1="-162.374" y1="1221.17" x2="1205.63" y2="-529.787" stroke="#4B5563"/>
<line x1="-150.374" y1="1221.17" x2="1217.63" y2="-529.787" stroke="#4B5563"/>
<line x1="-138.374" y1="1221.17" x2="1229.63" y2="-529.787" stroke="#4B5563"/>
<line x1="-126.374" y1="1221.17" x2="1241.63" y2="-529.787" stroke="#4B5563"/>
<line x1="-114.374" y1="1221.17" x2="1253.63" y2="-529.787" stroke="#4B5563"/>
<line x1="-102.374" y1="1221.17" x2="1265.63" y2="-529.787" stroke="#4B5563"/>
<line x1="-90.3745" y1="1221.17" x2="1277.63" y2="-529.787" stroke="#4B5563"/>
<line x1="-78.3745" y1="1221.17" x2="1289.63" y2="-529.787" stroke="#4B5563"/>
<line x1="-66.3745" y1="1221.17" x2="1301.63" y2="-529.787" stroke="#4B5563"/>
<line x1="-54.3745" y1="1221.17" x2="1313.63" y2="-529.787" stroke="#4B5563"/>
<line x1="-42.3745" y1="1221.17" x2="1325.63" y2="-529.787" stroke="#4B5563"/>
<line x1="-30.3745" y1="1221.17" x2="1337.63" y2="-529.787" stroke="#4B5563"/>
<line x1="-18.3745" y1="1221.17" x2="1349.63" y2="-529.787" stroke="#4B5563"/>
<line x1="-6.37447" y1="1221.17" x2="1361.63" y2="-529.787" stroke="#4B5563"/>
<line x1="5.62553" y1="1221.17" x2="1373.63" y2="-529.787" stroke="#4B5563"/>
<line x1="17.6255" y1="1221.17" x2="1385.63" y2="-529.787" stroke="#4B5563"/>
<line x1="29.6255" y1="1221.17" x2="1397.63" y2="-529.787" stroke="#4B5563"/>
<line x1="41.6255" y1="1221.17" x2="1409.63" y2="-529.787" stroke="#4B5563"/>
<line x1="53.6255" y1="1221.17" x2="1421.63" y2="-529.787" stroke="#4B5563"/>
<line x1="65.6255" y1="1221.17" x2="1433.63" y2="-529.787" stroke="#4B5563"/>
<line x1="77.6255" y1="1221.17" x2="1445.63" y2="-529.787" stroke="#4B5563"/>
<line x1="89.6255" y1="1221.17" x2="1457.63" y2="-529.787" stroke="#4B5563"/>
<line x1="101.626" y1="1221.17" x2="1469.63" y2="-529.787" stroke="#4B5563"/>
<line x1="113.626" y1="1221.17" x2="1481.63" y2="-529.787" stroke="#4B5563"/>
<line x1="125.626" y1="1221.17" x2="1493.63" y2="-529.787" stroke="#4B5563"/>
<line x1="137.626" y1="1221.17" x2="1505.63" y2="-529.787" stroke="#4B5563"/>
<line x1="149.626" y1="1221.17" x2="1517.63" y2="-529.787" stroke="#4B5563"/>
<line x1="161.626" y1="1221.17" x2="1529.63" y2="-529.787" stroke="#4B5563"/>
<line x1="173.626" y1="1221.17" x2="1541.63" y2="-529.787" stroke="#4B5563"/>
<line x1="185.626" y1="1221.17" x2="1553.63" y2="-529.787" stroke="#4B5563"/>
<line x1="197.626" y1="1221.17" x2="1565.63" y2="-529.787" stroke="#4B5563"/>
<line x1="209.626" y1="1221.17" x2="1577.63" y2="-529.787" stroke="#4B5563"/>
<line x1="221.626" y1="1221.17" x2="1589.63" y2="-529.787" stroke="#4B5563"/>
<line x1="233.626" y1="1221.17" x2="1601.63" y2="-529.787" stroke="#4B5563"/>
<line x1="245.626" y1="1221.17" x2="1613.63" y2="-529.787" stroke="#4B5563"/>
<line x1="257.626" y1="1221.17" x2="1625.63" y2="-529.787" stroke="#4B5563"/>
<line x1="269.626" y1="1221.17" x2="1637.63" y2="-529.787" stroke="#4B5563"/>
<line x1="281.626" y1="1221.17" x2="1649.63" y2="-529.787" stroke="#4B5563"/>
<line x1="293.626" y1="1221.17" x2="1661.63" y2="-529.787" stroke="#4B5563"/>
<line x1="305.626" y1="1221.17" x2="1673.63" y2="-529.787" stroke="#4B5563"/>
<line x1="317.626" y1="1221.17" x2="1685.63" y2="-529.787" stroke="#4B5563"/>
<line x1="329.626" y1="1221.17" x2="1697.63" y2="-529.787" stroke="#4B5563"/>
<line x1="341.626" y1="1221.17" x2="1709.63" y2="-529.787" stroke="#4B5563"/>
<line x1="353.626" y1="1221.17" x2="1721.63" y2="-529.787" stroke="#4B5563"/>
<line x1="365.626" y1="1221.17" x2="1733.63" y2="-529.787" stroke="#4B5563"/>
<line x1="377.626" y1="1221.17" x2="1745.63" y2="-529.787" stroke="#4B5563"/>
<line x1="389.626" y1="1221.17" x2="1757.63" y2="-529.787" stroke="#4B5563"/>
<line x1="401.626" y1="1221.17" x2="1769.63" y2="-529.787" stroke="#4B5563"/>
<line x1="413.626" y1="1221.17" x2="1781.63" y2="-529.787" stroke="#4B5563"/>
<line x1="425.626" y1="1221.17" x2="1793.63" y2="-529.787" stroke="#4B5563"/>
<line x1="437.626" y1="1221.17" x2="1805.63" y2="-529.787" stroke="#4B5563"/>
<line x1="449.626" y1="1221.17" x2="1817.63" y2="-529.787" stroke="#4B5563"/>
<line x1="461.626" y1="1221.17" x2="1829.63" y2="-529.787" stroke="#4B5563"/>
<line x1="473.626" y1="1221.17" x2="1841.63" y2="-529.787" stroke="#4B5563"/>
<line x1="485.626" y1="1221.17" x2="1853.63" y2="-529.787" stroke="#4B5563"/>
<line x1="497.626" y1="1221.17" x2="1865.63" y2="-529.787" stroke="#4B5563"/>
<line x1="509.626" y1="1221.17" x2="1877.63" y2="-529.787" stroke="#4B5563"/>
<line x1="521.626" y1="1221.17" x2="1889.63" y2="-529.787" stroke="#4B5563"/>
<line x1="533.626" y1="1221.17" x2="1901.63" y2="-529.787" stroke="#4B5563"/>
<line x1="545.626" y1="1221.17" x2="1913.63" y2="-529.787" stroke="#4B5563"/>
<line x1="557.626" y1="1221.17" x2="1925.63" y2="-529.787" stroke="#4B5563"/>
<line x1="569.626" y1="1221.17" x2="1937.63" y2="-529.787" stroke="#4B5563"/>
<line x1="581.626" y1="1221.17" x2="1949.63" y2="-529.787" stroke="#4B5563"/>
<line x1="593.626" y1="1221.17" x2="1961.63" y2="-529.787" stroke="#4B5563"/>
<line x1="605.626" y1="1221.17" x2="1973.63" y2="-529.787" stroke="#4B5563"/>
<line x1="617.626" y1="1221.17" x2="1985.63" y2="-529.787" stroke="#4B5563"/>
<line x1="629.626" y1="1221.17" x2="1997.63" y2="-529.787" stroke="#4B5563"/>
<line x1="641.626" y1="1221.17" x2="2009.63" y2="-529.787" stroke="#4B5563"/>
<line x1="653.626" y1="1221.17" x2="2021.63" y2="-529.787" stroke="#4B5563"/>
<line x1="665.626" y1="1221.17" x2="2033.63" y2="-529.787" stroke="#4B5563"/>
<line x1="677.626" y1="1221.17" x2="2045.63" y2="-529.787" stroke="#4B5563"/>
<line x1="689.626" y1="1221.17" x2="2057.63" y2="-529.787" stroke="#4B5563"/>
</svg>
