<svg fill="none" xmlns="http://www.w3.org/2000/svg" viewBox="0 0 400 300"><path d="M322.869 65.213c0-13.843-11.222-25.065-25.065-25.065-13.844 0-25.066 11.222-25.066 25.065v133.683c0 13.843 11.222 25.065 25.066 25.065 13.843 0 25.065-11.222 25.065-25.065V65.213ZM218.012 65.213c0-13.843-11.222-25.065-25.066-25.065-13.843 0-25.065 11.222-25.065 25.065v133.683c0 13.843 11.222 25.065 25.065 25.065 13.844 0 25.066-11.222 25.066-25.065V65.213Z" stroke="#4F46E5" stroke-width="5" stroke-miterlimit="10"/><path d="M317.555 80.632c8.53-10.903 6.607-26.656-4.296-35.186-10.903-8.53-26.656-6.608-35.187 4.295L173.403 183.519c-8.531 10.903-6.607 26.657 4.295 35.187 10.903 8.53 26.657 6.607 35.187-4.295l104.67-133.779ZM212.597 80.636c8.53-10.902 6.607-26.656-4.295-35.186-10.903-8.53-26.657-6.608-35.187 4.295L68.445 183.523c-8.53 10.903-6.607 26.657 4.296 35.187 10.902 8.53 26.656 6.607 35.186-4.295l104.67-133.779Z" stroke="#4F46E5" stroke-width="5" stroke-miterlimit="10"/><rect x="165" y="234" width="158" height="36" rx="18" fill="#4F46E5"/><path d="M197.116 259v-13.091h7.849v1.406h-6.264v4.424h5.676v1.406h-5.676V259h-1.585Zm10.254 0v-9.818h1.457v1.483h.103c.179-.486.502-.88.971-1.183a2.865 2.865 0 0 1 1.585-.454c.111 0 .25.003.416.007.166.004.292.01.377.019v1.534a4.15 4.15 0 0 0-.352-.057 3.432 3.432 0 0 0-.568-.045c-.478 0-.904.1-1.279.3a2.264 2.264 0 0 0-.882.818 2.21 2.21 0 0 0-.32 1.183V259h-1.508Zm9.586.23a3.991 3.991 0 0 1-1.693-.351 2.909 2.909 0 0 1-1.209-1.03c-.298-.451-.447-.997-.447-1.636 0-.562.111-1.018.332-1.368.222-.354.518-.631.889-.831.371-.2.78-.349 1.227-.447.452-.103.906-.183 1.362-.243.596-.077 1.08-.134 1.451-.173.375-.042.647-.113.818-.211.175-.098.262-.268.262-.511v-.051c0-.631-.173-1.121-.518-1.47-.341-.35-.859-.524-1.553-.524-.72 0-1.285.157-1.694.473-.409.315-.697.652-.863 1.009l-1.432-.511c.256-.596.597-1.061 1.023-1.393.43-.337.899-.571 1.406-.703a5.815 5.815 0 0 1 1.509-.205c.315 0 .677.038 1.086.115.414.072.812.224 1.196.454.387.23.709.577.965 1.042.256.464.383 1.086.383 1.866V259h-1.508v-1.33h-.077c-.102.214-.273.442-.511.684-.239.243-.556.45-.953.62-.396.171-.88.256-1.451.256Zm.231-1.355c.596 0 1.099-.117 1.508-.352a2.39 2.39 0 0 0 1.253-2.077v-1.381c-.064.077-.205.147-.422.211-.213.06-.46.113-.741.16a31.625 31.625 0 0 1-1.445.192 5.737 5.737 0 0 0-1.099.249c-.337.111-.61.279-.819.505-.204.222-.306.524-.306.908 0 .524.193.92.581 1.189.392.264.889.396 1.49.396ZM224.21 259v-9.818h1.457v1.534h.128c.205-.524.535-.931.991-1.221.456-.294 1.003-.441 1.643-.441.647 0 1.186.147 1.617.441.434.29.773.697 1.016 1.221h.102c.252-.507.629-.91 1.132-1.208.503-.303 1.106-.454 1.809-.454.878 0 1.596.275 2.154.825.558.545.837 1.395.837 2.55V259h-1.508v-6.571c0-.724-.199-1.242-.595-1.553a2.2 2.2 0 0 0-1.4-.467c-.69 0-1.225.209-1.604.627-.379.413-.569.937-.569 1.572V259h-1.534v-6.724c0-.559-.181-1.008-.543-1.349-.363-.345-.829-.518-1.4-.518-.392 0-.759.104-1.1.313a2.373 2.373 0 0 0-.818.87c-.204.366-.307.79-.307 1.272V259h-1.508Zm19.761.205c-.946 0-1.762-.209-2.448-.627a4.207 4.207 0 0 1-1.579-1.764c-.367-.759-.55-1.641-.55-2.646 0-1.006.183-1.892.55-2.659.371-.772.886-1.373 1.547-1.803.664-.435 1.44-.652 2.326-.652.512 0 1.017.085 1.515.256.499.17.953.447 1.362.831.409.379.735.882.978 1.508.243.627.364 1.398.364 2.314v.639h-7.568v-1.304h6.034c0-.554-.111-1.048-.332-1.483a2.517 2.517 0 0 0-.934-1.029c-.4-.251-.873-.377-1.419-.377-.6 0-1.12.149-1.559.448a2.945 2.945 0 0 0-1.004 1.15c-.234.473-.351.98-.351 1.521v.87c0 .741.127 1.37.383 1.885.26.512.62.902 1.08 1.17.461.264.995.396 1.605.396.396 0 .754-.055 1.074-.166a2.29 2.29 0 0 0 .837-.511 2.33 2.33 0 0 0 .543-.857l1.458.409a3.226 3.226 0 0 1-.774 1.304 3.764 3.764 0 0 1-1.342.87c-.533.204-1.131.307-1.796.307Zm8.584-.205-2.991-9.818h1.585l2.122 7.517h.102l2.097-7.517h1.611l2.071 7.491h.102l2.122-7.491h1.586L259.97 259h-1.483l-2.148-7.543h-.153L254.038 259h-1.483Zm16.056.205c-.887 0-1.665-.211-2.334-.633-.664-.422-1.184-1.012-1.559-1.771-.371-.758-.556-1.645-.556-2.659 0-1.023.185-1.915.556-2.678.375-.763.895-1.355 1.559-1.777.669-.422 1.447-.633 2.334-.633.886 0 1.661.211 2.326.633.669.422 1.189 1.014 1.56 1.777.375.763.562 1.655.562 2.678 0 1.014-.187 1.901-.562 2.659-.371.759-.891 1.349-1.56 1.771-.665.422-1.44.633-2.326.633Zm0-1.356c.673 0 1.227-.172 1.661-.517a3.05 3.05 0 0 0 .966-1.362 5.23 5.23 0 0 0 .313-1.828 5.28 5.28 0 0 0-.313-1.834 3.096 3.096 0 0 0-.966-1.375c-.434-.349-.988-.524-1.661-.524-.674 0-1.228.175-1.662.524-.435.35-.757.808-.966 1.375a5.28 5.28 0 0 0-.313 1.834c0 .656.105 1.266.313 1.828a3.05 3.05 0 0 0 .966 1.362c.434.345.988.517 1.662.517Zm6.751 1.151v-9.818h1.458v1.483h.102c.179-.486.503-.88.971-1.183a2.868 2.868 0 0 1 1.586-.454c.11 0 .249.003.415.007.166.004.292.01.377.019v1.534a4.176 4.176 0 0 0-.351-.057 3.445 3.445 0 0 0-.569-.045c-.478 0-.904.1-1.279.3-.37.196-.664.469-.882.818a2.21 2.21 0 0 0-.319 1.183V259h-1.509Zm8.104-3.58-.026-1.866h.307l4.295-4.372h1.867l-4.577 4.628h-.128l-1.738 1.61Zm-1.407 3.58v-13.091h1.509V259h-1.509Zm6.239 0-3.835-4.858 1.074-1.048 4.679 5.906h-1.918Z" fill="#fff"/></svg>
